<svg width="96" height="24" viewBox="0 0 96 24" fill="none" xmlns="http://www.w3.org/2000/svg">
<path d="M21.8121 17C18.9887 17 16.9998 14.886 16.9998 12.007C16.9998 9.12796 18.9887 7 21.8121 7C24.6632 7 26.6243 9.12796 26.6243 12.007C26.6243 14.886 24.6493 17 21.8121 17ZM21.8121 15.9986C23.787 15.9986 25.1083 14.3853 25.1083 12.007C25.1083 9.62865 23.787 7.98748 21.8121 7.98748C19.8371 7.98748 18.5019 9.62865 18.5019 12.007C18.5019 14.3853 19.8371 15.9986 21.8121 15.9986Z" fill="#0A0A0A"/>
<path d="M28.4766 9.30876C28.4766 8.29346 28.3931 7.70932 28.0454 7.22253V7.1669H30.2847V7.22253C29.9369 7.70932 29.8535 8.29346 29.8535 9.30876V15.8734H32.3152C33.4279 15.8734 34.1094 15.7204 34.471 14.872H34.5406V16.8331H28.0454V16.7775C28.3931 16.2768 28.4766 15.7204 28.4766 14.6912V9.30876Z" fill="#0A0A0A"/>
<path d="M39.7884 17C36.965 17 34.9762 14.886 34.9762 12.007C34.9762 9.12796 36.965 7 39.7884 7C42.6396 7 44.6007 9.12796 44.6007 12.007C44.6007 14.886 42.6257 17 39.7884 17ZM39.7884 15.9986C41.7634 15.9986 43.0847 14.3853 43.0847 12.007C43.0847 9.62865 41.7634 7.98748 39.7884 7.98748C37.8134 7.98748 36.4783 9.62865 36.4783 12.007C36.4783 14.3853 37.8134 15.9986 39.7884 15.9986Z" fill="#0A0A0A"/>
<path d="M46.4529 9.30876C46.4529 8.29346 46.3695 7.70932 46.0218 7.22253V7.1669H48.261V7.22253C47.9133 7.70932 47.8299 8.29346 47.8299 9.30876V15.8734H50.2916C51.4043 15.8734 52.0858 15.7204 52.4474 14.872H52.5169V16.8331H46.0218V16.7775C46.3695 16.2768 46.4529 15.7204 46.4529 14.6912V9.30876Z" fill="#0A0A0A"/>
<path d="M53.7232 14.6912L56.644 7.1669H57.854L60.8721 14.6217C61.2754 15.6231 61.5396 16.2768 61.9569 16.7775V16.8331H59.6481V16.7775C59.9124 16.3185 59.7594 15.5535 59.4117 14.6773L59.1196 13.9402H55.0862L54.7942 14.7051C54.4465 15.6092 54.3213 16.3046 54.6273 16.7775V16.8331H52.6384V16.7775C53.0835 16.2907 53.3616 15.6092 53.7232 14.6912ZM55.4618 12.9805H58.7441L57.1168 8.8637H57.0473L55.4618 12.9805Z" fill="#0A0A0A"/>
<path d="M63.139 9.30876C63.139 8.29346 63.0555 7.70932 62.7078 7.22253V7.1669H66.2405C69.3699 7.1669 71.4422 9.11405 71.4422 11.993C71.4422 14.886 69.3699 16.8331 66.2405 16.8331H62.7078V16.7775C63.0555 16.2768 63.139 15.7204 63.139 14.6912V9.30876ZM65.9206 15.9013C68.3407 15.9013 69.9401 14.6078 69.9401 11.993C69.9401 9.3783 68.3407 8.09875 65.9206 8.09875H64.5159V15.9013H65.9206Z" fill="#0A0A0A"/>
<path d="M73.2952 9.30876C73.2952 8.29346 73.2118 7.70932 72.8641 7.22253V7.1669H79.6096V8.79416H79.54C79.1923 8.30737 78.6221 8.12656 77.4121 8.12656H74.6721V11.4645H76.7862C77.8849 11.4645 78.3578 11.3115 78.7055 10.9499H78.7751V12.9249H78.7055C78.3717 12.5494 77.8849 12.4103 76.7862 12.4103H74.6721V15.8734H77.6068C78.6916 15.8734 79.3453 15.6926 79.7208 15.025H79.8043V16.8331H72.8641V16.7775C73.2118 16.2768 73.2952 15.7204 73.2952 14.6912V9.30876Z" fill="#0A0A0A"/>
</svg>
