<svg width="216" height="24" viewBox="0 0 216 24" fill="none" xmlns="http://www.w3.org/2000/svg">
<line y1="11.5" x2="80" y2="11.5" stroke="black" stroke-opacity="0.16"/>
<path d="M103.385 18.8709C102.687 18.8709 102.082 18.6639 101.571 18.2499C101.059 17.8359 100.67 17.2676 100.402 16.5451C100.134 15.8146 100 14.9947 100 14.0855C100 12.9896 100.207 11.9181 100.621 10.8709C101.035 9.82368 101.644 8.87797 102.447 8.03373C103.259 7.18949 104.237 6.53195 105.382 6.06113C105.488 6.02054 105.573 6.00024 105.638 6.00024C105.735 6.00024 105.808 6.0246 105.857 6.0733C105.914 6.12201 105.942 6.18289 105.942 6.25595C105.942 6.38584 105.861 6.50354 105.699 6.60907C104.773 7.20166 104.055 7.86732 103.543 8.60603C103.04 9.34474 102.788 10.1403 102.788 10.9926C102.788 11.4635 102.861 11.8653 103.008 12.1981C103.162 12.5309 103.349 12.8029 103.568 13.0139C103.795 13.2169 104.091 13.4523 104.457 13.7202C104.806 13.9718 105.082 14.1951 105.285 14.3899C105.496 14.5847 105.67 14.8323 105.808 15.1327C105.954 15.4249 106.027 15.778 106.027 16.192C106.027 16.7278 105.91 17.1986 105.674 17.6045C105.447 18.0104 105.13 18.3229 104.725 18.5421C104.327 18.7613 103.88 18.8709 103.385 18.8709ZM113.358 18.8709C112.66 18.8709 112.055 18.6639 111.543 18.2499C111.032 17.8359 110.642 17.2676 110.374 16.5451C110.107 15.8146 109.973 14.9947 109.973 14.0855C109.973 12.9896 110.18 11.9181 110.594 10.8709C111.008 9.82368 111.616 8.87797 112.42 8.03373C113.232 7.18949 114.21 6.53195 115.355 6.06113C115.46 6.02054 115.545 6.00024 115.61 6.00024C115.708 6.00024 115.781 6.0246 115.83 6.0733C115.886 6.12201 115.915 6.18289 115.915 6.25595C115.915 6.38584 115.834 6.50354 115.671 6.60907C114.746 7.20166 114.027 7.86732 113.516 8.60603C113.013 9.34474 112.761 10.1403 112.761 10.9926C112.761 11.4635 112.834 11.8653 112.98 12.1981C113.134 12.5309 113.321 12.8029 113.54 13.0139C113.768 13.2169 114.064 13.4523 114.429 13.7202C114.778 13.9718 115.054 14.1951 115.257 14.3899C115.468 14.5847 115.643 14.8323 115.781 15.1327C115.927 15.4249 116 15.778 116 16.192C116 16.7278 115.882 17.1986 115.647 17.6045C115.42 18.0104 115.103 18.3229 114.697 18.5421C114.299 18.7613 113.853 18.8709 113.358 18.8709Z" fill="black" fill-opacity="0.16"/>
<line x1="136" y1="11.5" x2="216" y2="11.5" stroke="black" stroke-opacity="0.16"/>
</svg>
