<svg width="21" height="16" viewBox="0 0 21 16" fill="none" xmlns="http://www.w3.org/2000/svg">
<path fill-rule="evenodd" clip-rule="evenodd" d="M6.2502 1C6.0677 1 5.89609 1.0701 5.77229 1.1894C5.6492 1.3082 5.5836 1.4652 5.5836 1.625L5.5801 10.65C5.58 10.8846 5.4167 11.0876 5.1876 11.1381C4.9584 11.1885 4.725 11.0728 4.6264 10.8599C3.882 9.2528 2.7438 8.7239 2.0722 8.7293C1.7262 8.7321 1.5777 8.8622 1.5329 8.9483C1.4923 9.0266 1.4401 9.2592 1.7394 9.7012L5.1636 14.6498H11.6267C11.637 14.5942 11.6482 14.5348 11.6599 14.4719C11.9018 13.1786 12.4154 10.4317 12.5471 9.8838C12.602 9.6538 12.564 9.4114 12.4382 9.205C12.3119 8.9979 12.105 8.8405 11.856 8.7712L11.8522 8.7701L7.2788 7.4561C7.0645 7.3945 6.91689 7.1985 6.91689 6.9755V1.625C6.91689 1.4652 6.8512 1.3082 6.7281 1.1894C6.6044 1.0701 6.4328 1 6.2502 1ZM5.0782 0.469599C5.392 0.166999 5.8139 0 6.2502 0C6.6865 0 7.1084 0.166999 7.4223 0.469599C7.7367 0.772799 7.91689 1.188 7.91689 1.625V6.5989L12.1265 7.8084C12.6123 7.9443 13.0307 8.2557 13.2921 8.6845C13.5542 9.1146 13.6366 9.6277 13.5195 10.117C13.395 10.6353 12.894 13.3132 12.6492 14.6224C12.5964 14.9045 12.5555 15.1231 12.5328 15.2428C12.4881 15.4789 12.2818 15.6498 12.0416 15.6498H4.9016C4.7374 15.6498 4.5838 15.5692 4.4904 15.4343L0.913096 10.2645C0.505596 9.6637 0.367096 9.0233 0.645496 8.4873C0.919996 7.959 1.4962 7.7339 2.0642 7.7293C2.86 7.723 3.7935 8.1229 4.5807 8.9831L4.5836 1.625C4.5836 1.1881 4.7638 0.772799 5.0782 0.469599ZM17.5941 0.7026C17.8066 0.5263 18.1218 0.5556 18.2982 0.7682L20.6315 3.5807C20.7851 3.7658 20.7851 4.034 20.6315 4.2192L18.2982 7.0317C18.1218 7.2442 17.8066 7.2735 17.5941 7.0972C17.3816 6.9209 17.3522 6.6057 17.5285 6.3932L19.1822 4.3999H14.4134C14.1372 4.3999 13.9134 4.1761 13.9134 3.8999C13.9134 3.6238 14.1372 3.3999 14.4134 3.3999H19.1822L17.5285 1.4067C17.3522 1.1941 17.3816 0.8789 17.5941 0.7026Z" fill="white"/>
</svg>
